<svg xmlns="http://www.w3.org/2000/svg" viewBox="0 0 61.06 56.14"><defs><style>.cls-1{fill:#fff;}.cls-2{fill:#3294c2;}</style></defs><title>資產 1</title><g id="圖層_2" data-name="圖層 2"><g id="圖層_1-2" data-name="圖層 1"><path class="cls-1" d="M59.46,14.48H58v9.08h1.49A1.57,1.57,0,0,0,61.06,22V16A1.57,1.57,0,0,0,59.46,14.48Z"/><path class="cls-1" d="M59.46,26.29H58v9.08h1.49a1.57,1.57,0,0,0,1.6-1.53v-6A1.57,1.57,0,0,0,59.46,26.29Z"/><path class="cls-1" d="M59.46,38.23H58v9.08h1.49a1.57,1.57,0,0,0,1.6-1.53v-6A1.57,1.57,0,0,0,59.46,38.23Z"/><rect class="cls-2" x="57.61" y="10.98" width="0.83" height="37.64"/><rect class="cls-1" y="4.36" width="57.36" height="51.77" rx="8.55" ry="8.55"/><rect class="cls-2" x="28.8" y="24.33" width="23.21" height="1.6" rx="0.55" ry="0.55"/><rect class="cls-2" x="28.8" y="19.12" width="23.21" height="1.6" rx="0.55" ry="0.55"/><rect class="cls-2" x="28.8" y="38.78" width="23.05" height="1.6" rx="0.55" ry="0.55"/><rect class="cls-2" x="28.8" y="33.57" width="23.05" height="1.6" rx="0.55" ry="0.55"/><rect class="cls-2" x="28.8" y="44.12" width="23.05" height="1.6" rx="0.55" ry="0.55"/><path class="cls-2" d="M18.71,46.75H9.26c-1.08,0-1.8-1.41-1.32-2.61l4.62-11.67a1.36,1.36,0,0,1,2.63,0L20,44.11C20.52,45.32,19.81,46.75,18.71,46.75Z"/><circle class="cls-2" cx="13.99" cy="22.42" r="5.72"/><rect class="cls-1" x="14.96" y="0.59" width="3.87" height="7.84" rx="1.93" ry="1.93"/><path class="cls-2" d="M16.89,9a2.52,2.52,0,0,1-2.52-2.52v-4a2.52,2.52,0,1,1,5,0v4A2.52,2.52,0,0,1,16.89,9Zm0-7.84a1.36,1.36,0,0,0-1.35,1.35v4a1.35,1.35,0,1,0,2.7,0v-4A1.36,1.36,0,0,0,16.89,1.17Z"/><rect class="cls-1" x="38.53" y="0.59" width="3.87" height="7.84" rx="1.93" ry="1.93"/><path class="cls-2" d="M40.47,9A2.52,2.52,0,0,1,38,6.49v-4a2.52,2.52,0,1,1,5,0v4A2.52,2.52,0,0,1,40.47,9Zm0-7.84a1.35,1.35,0,0,0-1.35,1.35v4a1.35,1.35,0,1,0,2.69,0v-4A1.35,1.35,0,0,0,40.47,1.17Z"/></g></g></svg>