<svg xmlns="http://www.w3.org/2000/svg" viewBox="0 0 56 45.48"><defs><style>.cls-1{fill:#fff;}.cls-2{fill:none;stroke:#3294c2;stroke-miterlimit:10;}</style></defs><title>圖層 2</title><g id="圖層_2" data-name="圖層 2"><g id="圖層_1-2" data-name="圖層 1"><g id="圖層_2-2" data-name="圖層 2"><g id="圖層_1-2-2" data-name="圖層 1-2"><path class="cls-1" d="M27.63,43.58a1.44,1.44,0,0,1-1.2,1.57,1.15,1.15,0,0,1-.77-.23c-2-1.47-5.59-3.25-11.48-3.25A20.87,20.87,0,0,0,1.93,45.15a1.2,1.2,0,0,1-1.76-.54A1.59,1.59,0,0,1,0,43.77V7.36A1.74,1.74,0,0,1,.45,6.17C2,4.58,7.15-.28,14.18,0a19.54,19.54,0,0,1,13,6.16,1.78,1.78,0,0,1,.44,1.19Z"/><path class="cls-1" d="M56,43.91a1.42,1.42,0,0,1-1.22,1.56,1.12,1.12,0,0,1-.7-.18A22.44,22.44,0,0,0,42,41.58,18.08,18.08,0,0,0,30.32,45a1.19,1.19,0,0,1-1.76-.51,1.54,1.54,0,0,1-.18-.85V7.29a1.78,1.78,0,0,1,.37-1.12A16.36,16.36,0,0,1,41.5,0c7,.16,12.37,4.64,14,6.15A1.69,1.69,0,0,1,56,7.42Z"/><path class="cls-2" d="M3.05,9.85a13.85,13.85,0,0,1,10.5-4.17,13.49,13.49,0,0,1,10.08,4.45"/><path class="cls-2" d="M3.05,15.38a13.86,13.86,0,0,1,10.5-4.18,13.52,13.52,0,0,1,10.08,4.46"/><path class="cls-2" d="M3.05,20.91a13.86,13.86,0,0,1,10.5-4.18,13.53,13.53,0,0,1,10.08,4.45"/><path class="cls-2" d="M3.05,26.44a13.86,13.86,0,0,1,10.5-4.18,13.49,13.49,0,0,1,10.08,4.45"/><path class="cls-2" d="M3.05,32a13.85,13.85,0,0,1,10.5-4.17,13.51,13.51,0,0,1,10.08,4.4"/><path class="cls-2" d="M3.05,37.49a13.85,13.85,0,0,1,10.5-4.17,13.49,13.49,0,0,1,10.08,4.45"/><path class="cls-2" d="M31.89,9.85a13.85,13.85,0,0,1,10.5-4.17A13.63,13.63,0,0,1,52.5,10.13"/><path class="cls-2" d="M31.89,15.38a13.86,13.86,0,0,1,10.5-4.18A13.65,13.65,0,0,1,52.5,15.66"/><path class="cls-2" d="M31.89,20.91a13.86,13.86,0,0,1,10.5-4.18A13.67,13.67,0,0,1,52.5,21.18"/><path class="cls-2" d="M31.89,26.44a13.86,13.86,0,0,1,10.5-4.18A13.63,13.63,0,0,1,52.5,26.71"/><path class="cls-2" d="M31.89,32a13.85,13.85,0,0,1,10.5-4.17,13.64,13.64,0,0,1,10.11,4.4"/><path class="cls-2" d="M31.89,37.49a13.85,13.85,0,0,1,10.5-4.17A13.63,13.63,0,0,1,52.5,37.77"/></g></g></g></g></svg>