<svg xmlns="http://www.w3.org/2000/svg" viewBox="0 0 64 45.48"><defs><style>.cls-1{fill:#fff;}.cls-2{fill:none;stroke:#3294c2;stroke-miterlimit:10;}</style></defs><title>資產 2</title><g id="圖層_2" data-name="圖層 2"><g id="圖層_1-2" data-name="圖層 1"><path class="cls-1" d="M31.57,43.57a1.47,1.47,0,0,1-2.25,1.34c-2.26-1.47-6.38-3.25-13.12-3.25-7.08,0-11.59,2-14,3.48A1.47,1.47,0,0,1,0,43.76V7.35A1.59,1.59,0,0,1,.51,6.16C2.22,4.57,8.17-.29,16.2,0A23.69,23.69,0,0,1,31.07,6.16a1.62,1.62,0,0,1,.5,1.19Z"/><path class="cls-1" d="M64,43.9a1.48,1.48,0,0,1-2.19,1.38A28.27,28.27,0,0,0,48,41.57,22.76,22.76,0,0,0,34.65,45a1.47,1.47,0,0,1-2.22-1.36V7.28a1.63,1.63,0,0,1,.43-1.12A19.76,19.76,0,0,1,47.43,0c8,.16,14.14,4.64,16,6.15A1.6,1.6,0,0,1,64,7.41Z"/><path class="cls-2" d="M3.48,9.84a17.07,17.07,0,0,1,12-4.17C23.25,5.85,27,10.12,27,10.12"/><path class="cls-2" d="M3.48,15.37a17.1,17.1,0,0,1,12-4.18C23.25,11.38,27,15.65,27,15.65"/><path class="cls-2" d="M3.48,20.9a17.1,17.1,0,0,1,12-4.18C23.25,16.91,27,21.17,27,21.17"/><path class="cls-2" d="M3.48,26.43a17.1,17.1,0,0,1,12-4.18C23.25,22.43,27,26.7,27,26.7"/><path class="cls-2" d="M3.48,32a17.07,17.07,0,0,1,12-4.17C23.25,28,27,32.23,27,32.23"/><path class="cls-2" d="M3.48,37.48a17.07,17.07,0,0,1,12-4.17C23.25,33.49,27,37.76,27,37.76"/><path class="cls-2" d="M36.44,9.84a17.07,17.07,0,0,1,12-4.17C56.21,5.85,60,10.12,60,10.12"/><path class="cls-2" d="M36.44,15.37a17.1,17.1,0,0,1,12-4.18C56.21,11.38,60,15.65,60,15.65"/><path class="cls-2" d="M36.44,20.9a17.1,17.1,0,0,1,12-4.18C56.21,16.91,60,21.17,60,21.17"/><path class="cls-2" d="M36.44,26.43a17.1,17.1,0,0,1,12-4.18C56.21,22.43,60,26.7,60,26.7"/><path class="cls-2" d="M36.44,32a17.07,17.07,0,0,1,12-4.17C56.21,28,60,32.23,60,32.23"/><path class="cls-2" d="M36.44,37.48a17.07,17.07,0,0,1,12-4.17C56.21,33.49,60,37.76,60,37.76"/></g></g></svg>