<?xml version="1.0" encoding="utf-8"?>
<!-- Generator: Adobe Illustrator 22.1.0, SVG Export Plug-In . SVG Version: 6.00 Build 0)  -->
<svg version="1.1" id="圖層_1" xmlns="http://www.w3.org/2000/svg" xmlns:xlink="http://www.w3.org/1999/xlink" x="0px" y="0px"
	 viewBox="0 0 70.8 55.9" style="enable-background:new 0 0 70.8 55.9;" xml:space="preserve">
<style type="text/css">
	.st0{fill:#FFFFFF;}
	.st1{fill:#3294C2;}
</style>
<title>資產 1</title>
<g id="圖層_2_1_">
	<g id="圖層_1-2">
		<path class="st0" d="M10.5,0h49.7c5.8,0,10.5,4.1,10.5,9.2v37.5c0,5.1-4.7,9.2-10.5,9.2H10.5C4.7,55.9,0,51.8,0,46.7V9.2
			C0,4.1,4.7,0,10.5,0z"/>
		<circle class="st1" cx="35.4" cy="28" r="18.1"/>
		<path class="st0" d="M29.3,36.4V19.6c0-0.3,0.3-0.6,0.6-0.6c0.1,0,0.2,0,0.3,0.1l16.3,8.3c0.3,0.2,0.4,0.5,0.2,0.8
			c-0.1,0.1-0.1,0.2-0.2,0.2l-16.3,8.5c-0.3,0.2-0.7,0-0.8-0.3C29.3,36.6,29.3,36.5,29.3,36.4z"/>
	</g>
</g>
</svg>
